<svg width="2000" height="2000" viewBox="0 0 2000 2000" fill="none" xmlns="http://www.w3.org/2000/svg">
<path d="M1225.86 683.939C1249.57 681.422 1278.68 691.976 1297.23 706.821C1319.03 724.253 1332.92 749.715 1335.77 777.487C1338.91 806.534 1331.39 825.819 1316.83 850.428C1305.51 869.566 1294.22 888.935 1282.92 908.106L1196.46 1054.95L1108.94 1203.54C1076.63 1258.2 1060.59 1308.13 989.492 1315.11C964.847 1316.7 940.418 1309.63 920.432 1295.13C898.576 1279.05 883.907 1255.05 879.585 1228.27C876.975 1211.5 878.265 1187.93 885.656 1172.65C897.129 1148.93 913.386 1123.36 926.924 1100.45L1005.05 967.556L1100.21 805.916L1129.01 756.981C1155.92 711.321 1170.14 691.865 1225.86 683.939Z" fill="#F45151"/>
<path d="M729.809 674.52C789.177 672.853 838.726 719.485 840.658 778.846C842.592 838.206 796.182 887.964 736.83 890.162C677.103 892.375 626.959 845.605 625.014 785.868C623.068 726.131 670.062 676.197 729.809 674.52Z" fill="#F45151"/>
<path d="M831.189 889.876C890.38 884.857 942.48 928.663 947.696 987.842C952.912 1047.01 909.279 1099.26 850.122 1104.67C790.686 1110.11 738.14 1066.23 732.899 1006.77C727.658 947.319 771.717 894.919 831.189 889.876Z" fill="#F45151"/>
</svg>
