<svg width="2000" height="2000" viewBox="0 0 2000 2000" fill="none" xmlns="http://www.w3.org/2000/svg">
<path d="M624.544 1209.93C653.83 1210.44 688.979 1202.21 679.838 1160.7C674.5 1136.47 628.685 1132.07 606.339 1127.79C560.166 1118.95 527.363 1086.28 551.869 1037.86C571.793 1001.18 644.542 999.248 676.223 1020.46C687.232 1027.83 698.162 1040.07 700.645 1053.98C701.659 1059.15 703.579 1065.08 700.569 1069.67C696.587 1072.13 688.359 1071.24 683.039 1071.21C674.018 1071.47 671.371 1071.12 668.35 1060.04C663.487 1042.21 647.198 1037.94 630.977 1035.62C603.892 1034.09 581.675 1038.49 574.559 1067.29C577.031 1078.1 580.193 1086.4 590.667 1091.85C625.061 1109.76 685.972 1101.04 706.496 1142.67L713.424 1135.28C721.414 1106.03 731.229 1085.39 758.693 1069.81C778.291 1058.71 803.921 1056.71 825.512 1062.39C842.414 1066.85 866.876 1083.85 872.785 1100.81C888.465 1124.11 891.855 1153.57 881.879 1179.82C879.24 1195.73 864.935 1213.03 851.741 1222.28C802.07 1257.1 740.932 1233.86 716.215 1181.27C715.518 1179.79 714.419 1169.7 714.179 1167.48C712.556 1179.73 714.49 1193.57 704.546 1202.28C697.889 1216.25 684.067 1225.5 669.512 1230.92C626.144 1247.05 559.073 1238.84 540.71 1189.88C538.734 1184.61 535.766 1172.02 537.339 1166.72C542.162 1163.08 558.641 1165.63 565.225 1165.08C569.255 1164.75 569.937 1174.27 570.938 1177.26C579.024 1201.34 602.677 1206.24 624.544 1209.93ZM808.64 1208.74C882.097 1193.82 870.535 1086.93 796.298 1089.29C757.593 1095.7 738.19 1124.9 745.46 1163.15C748.337 1177.95 756.916 1191.03 769.346 1199.55C782.012 1208.13 793.76 1209.49 808.64 1208.74Z" fill="#FEFEFE"/>
<path d="M624.544 1209.93C653.83 1210.44 688.979 1202.21 679.838 1160.7C674.5 1136.47 628.685 1132.07 606.339 1127.79C560.166 1118.95 527.363 1086.28 551.869 1037.86C571.793 1001.18 644.542 999.248 676.223 1020.46C687.232 1027.83 698.162 1040.07 700.645 1053.98C701.659 1059.15 703.579 1065.08 700.569 1069.67C696.587 1072.13 688.359 1071.24 683.039 1071.21L681.648 1071.02C678.386 1070.56 676.443 1070.72 674.102 1068.56C667.859 1053.26 669.497 1045.14 650.414 1038.08C635.874 1032.69 609.013 1031.31 594.969 1037.54C562.166 1052.09 566.455 1089.78 600.906 1099.51C637.894 1109.97 684.328 1107.53 705.269 1144.69C713.383 1159.71 711.878 1179.83 706.113 1195.8C705.51 1197.47 704.856 1199.12 704.155 1200.75L704.546 1202.28C697.889 1216.25 684.067 1225.5 669.512 1230.92C626.144 1247.05 559.073 1238.84 540.71 1189.88C538.734 1184.61 535.766 1172.02 537.339 1166.72C542.162 1163.08 558.641 1165.63 565.225 1165.08C569.255 1164.75 569.937 1174.27 570.938 1177.26C579.024 1201.34 602.677 1206.24 624.544 1209.93Z" fill="#FEFEFE"/>
<path d="M704.546 1202.28C697.889 1216.25 684.067 1225.5 669.512 1230.92C626.144 1247.05 559.073 1238.84 540.71 1189.88C538.734 1184.61 535.766 1172.02 537.339 1166.72C542.162 1163.08 558.641 1165.63 565.225 1165.08C569.255 1164.75 569.937 1174.27 570.938 1177.26C579.024 1201.34 602.677 1206.24 624.544 1209.93C595.32 1212.15 571.445 1198.96 566.956 1168.04C557.61 1167.83 547.911 1168.01 538.536 1168.05C542.321 1227.64 600.027 1241.43 650.249 1233.64C675.462 1229.74 689.132 1221.11 704.155 1200.75L704.546 1202.28Z" fill="#403F40"/>
<path d="M704.155 1200.75C704.856 1199.12 705.51 1197.47 706.113 1195.8C711.878 1179.83 713.383 1159.71 705.269 1144.69C684.328 1107.53 637.895 1109.97 600.906 1099.51C566.455 1089.78 562.166 1052.09 594.969 1037.54C609.013 1031.31 635.874 1032.69 650.414 1038.08C669.497 1045.14 667.859 1053.26 674.103 1068.56C676.443 1070.72 678.386 1070.56 681.648 1071.02L683.039 1071.21C674.018 1071.47 671.371 1071.12 668.35 1060.04C663.487 1042.21 647.198 1037.94 630.977 1035.62C603.892 1034.09 581.675 1038.49 574.559 1067.29C577.031 1078.1 580.193 1086.4 590.667 1091.85C625.062 1109.76 685.972 1101.04 706.496 1142.67L713.424 1135.28C721.414 1106.03 731.229 1085.39 758.693 1069.81C778.291 1058.71 803.921 1056.71 825.512 1062.39C842.414 1066.85 866.876 1083.85 872.785 1100.81C850.519 1067.72 808.515 1054.16 771.1 1067.96C733.685 1081.77 710.562 1119.37 715.121 1158.98C719.681 1198.6 750.741 1229.97 790.314 1234.91C829.888 1239.86 867.711 1217.1 881.879 1179.82C879.24 1195.73 864.936 1213.03 851.741 1222.28C802.07 1257.1 740.932 1233.86 716.215 1181.27C715.519 1179.79 714.419 1169.7 714.179 1167.48C712.556 1179.73 714.49 1193.57 704.546 1202.28L704.155 1200.75Z" fill="black"/>
<path d="M326.397 1020.08C327.406 1023.3 327.318 1025.24 329.482 1026.82C333.372 1023.28 333.119 1015.22 333.571 1009.7C333.948 1010.53 334.324 1011.36 334.701 1012.19L337.009 1012.94C340.898 1011.34 412.374 883.787 423.964 869.737C447.351 841.387 497.774 852.514 505.633 881.596C518.817 910.044 502.516 930.061 488.462 953.786L456.452 1007.82C448.109 1022.36 439.675 1036.86 431.147 1051.3C428.582 1055.65 422.04 1067.27 419.184 1070.73C417.995 1075.66 412.478 1083.54 409.682 1088.2C399.736 1104.76 391.59 1123.49 377.571 1137.08C373.432 1139.87 366.82 1143.23 362.18 1144.77C336.813 1153.14 307.384 1138.06 299.269 1113.16C290.065 1084.93 305.591 1070.11 317.547 1046.67C319.251 1043.33 319.063 1042.82 318.01 1039.79L315.825 1038.88C309.469 1040.21 300.354 1049.39 294.193 1047.77C295.438 1046.79 294.666 1047.28 296.174 1046.61C313.184 1039.16 316.809 1034.8 326.397 1020.08Z" fill="#F45151"/>
<path d="M326.397 1020.08C327.406 1023.3 327.318 1025.24 329.482 1026.82C333.372 1023.28 333.119 1015.22 333.571 1009.7C333.948 1010.53 334.324 1011.36 334.701 1012.19L337.009 1012.94C340.898 1011.34 412.374 883.787 423.964 869.737C447.351 841.387 497.774 852.514 505.633 881.596L499.963 874.524C486.594 857.679 466.479 850.395 445.379 857.45C426.734 863.685 421.196 876.411 411.779 892.362C395.615 919.742 379.533 947.346 363.298 974.772L327.009 1036.38C318.499 1050.78 299.124 1079.69 298.554 1095.12C298.066 1107.73 302.63 1120.02 311.232 1129.26C320.299 1139.18 333.041 1144.94 346.477 1145.19C359.219 1145.39 371.5 1140.42 380.514 1131.42C393.33 1118.64 411.761 1077.22 419.184 1070.73C417.995 1075.66 412.478 1083.54 409.682 1088.2C399.736 1104.76 391.59 1123.49 377.571 1137.08C373.432 1139.87 366.82 1143.23 362.18 1144.77C336.813 1153.14 307.384 1138.06 299.269 1113.16C290.065 1084.93 305.591 1070.11 317.547 1046.67C319.251 1043.33 319.062 1042.82 318.01 1039.79L315.825 1038.88C309.469 1040.21 300.354 1049.39 294.193 1047.77C295.438 1046.79 294.666 1047.28 296.174 1046.61C313.184 1039.16 316.809 1034.8 326.397 1020.08Z" fill="black"/>
<path d="M753.681 909.821C751.798 908.891 751.02 907.716 749.951 905.902C725.592 864.518 734.87 806.364 776.778 780.109C794.783 768.844 816.54 765.23 837.22 770.071C855.217 774.298 870.94 785.009 880.681 800.797C880.344 792.661 879.49 783.887 881.676 776.103C884.79 773.676 905.355 774.575 910.581 774.63C911.646 793.963 911.142 815.802 911.125 835.305L911.001 939.584C901.537 939.616 891.598 939.798 882.174 939.659C882.105 928.23 882.301 916.801 882.765 905.382C861.841 944.152 819.163 955.013 780.304 934.346C769.69 928.701 761.516 918.792 753.681 909.821ZM835.247 915.071C867.215 908.907 888.102 877.955 881.854 846.003C875.608 814.052 844.604 793.244 812.668 799.572C780.847 805.878 760.131 836.746 766.355 868.583C772.579 900.42 803.395 921.214 835.247 915.071Z" fill="#FEFEFE"/>
<path d="M753.681 909.821C751.798 908.891 751.02 907.716 749.951 905.902C725.592 864.518 734.87 806.364 776.778 780.109C794.783 768.844 816.54 765.23 837.22 770.071C855.217 774.298 870.94 785.009 880.681 800.797C880.344 792.661 879.49 783.887 881.676 776.103C882.248 787.176 882.686 798.254 882.988 809.336C876.256 799.314 871.527 790.573 861.001 783.793C809.468 750.596 750.118 783.333 740 840.89C736.853 858.915 739.054 877.467 746.333 894.254C747.861 897.865 752.827 907.401 753.681 909.821Z" fill="black"/>
<path d="M1062.57 942.67C1041.81 943.637 1018.33 927.842 1006.26 911.437C991.358 891.182 984.961 862.854 989.346 838.168C992.715 819.174 1009.36 793.991 1025.54 783.425C1043.28 771.842 1066.2 764.116 1087.41 768.285C1136.93 775.311 1170.54 822.613 1162.46 871.514C1161.22 879.001 1153.72 902.613 1147.07 907.045C1128.04 934.105 1095.23 947.936 1062.57 942.67ZM1089.09 914.596C1120.58 907.623 1140.57 876.575 1133.89 845.021C1127.2 813.468 1096.33 793.197 1064.72 799.598C1032.7 806.081 1012.11 837.432 1018.88 869.393C1025.65 901.353 1057.19 921.658 1089.09 914.596Z" fill="#FEFEFE"/>
<path d="M1062.57 942.67C1041.81 943.637 1018.33 927.842 1006.26 911.437C991.358 891.182 984.961 862.854 989.346 838.168C992.715 819.174 1009.36 793.991 1025.54 783.425C1043.28 771.842 1066.2 764.116 1087.41 768.285C1136.93 775.311 1170.54 822.613 1162.46 871.514C1161.22 879.001 1153.72 902.613 1147.07 907.045C1169.27 875.491 1167.88 833.054 1143.67 803.018C1119.46 772.982 1078.29 762.612 1042.74 777.599C1007.2 792.585 985.869 829.304 990.469 867.605C995.078 905.907 1024.48 936.53 1062.57 942.67Z" fill="black"/>
<path d="M1372.48 1063.37C1420.09 1056.54 1464.15 1089.79 1470.66 1137.43C1477.18 1185.09 1443.64 1228.94 1395.95 1235.13C1348.7 1241.27 1305.35 1208.12 1298.91 1160.91C1292.45 1113.7 1325.31 1070.14 1372.48 1063.37ZM1390.5 1209.03C1468.64 1195.66 1452.29 1083.98 1379.87 1089.26C1370.04 1090.94 1362.43 1092.69 1353.99 1098.16C1310.33 1126.52 1323.34 1202.18 1377.35 1208.58C1381.66 1209.09 1386.21 1209.05 1390.5 1209.03Z" fill="#FEFEFE"/>
<path d="M1151.35 1014.44C1158.39 1014.34 1179.55 1013.92 1184.72 1017.78C1184.72 1033.04 1184.61 1048.29 1184.4 1063.55C1195.8 1063.49 1231.21 1062.58 1240.51 1064.83C1240.98 1069.15 1238.16 1074.6 1238.2 1078.44C1238.25 1083.28 1241.08 1086.99 1240.05 1092.41C1236.67 1096.05 1192.88 1094.39 1184.53 1094.51L1184.51 1148.72C1184.53 1209.53 1186.17 1203.7 1240.28 1204.6C1243.08 1204.65 1245.54 1223.12 1246.66 1226.68C1250.71 1203.74 1249.29 1191.82 1249.25 1168.66L1249.19 1102.14C1249.18 1096.74 1248.28 1069.26 1250.83 1065.85C1253.83 1061.84 1274.37 1063.08 1279.07 1064.16C1280.19 1064.41 1280.91 1066.12 1281.14 1067.18C1281.89 1112.98 1281.24 1158.86 1281.53 1204.68C1281.57 1212.13 1282.16 1224.84 1280.74 1231.73L1280.05 1232.61C1273.17 1235.34 1253.9 1232.87 1246.13 1231.46C1245.16 1231.84 1239.75 1233.9 1239.1 1233.86C1221.17 1232.85 1200.77 1235.51 1183.61 1229.68C1138.3 1214.3 1155.54 1153.9 1150.65 1118.12C1149.67 1110.9 1152.81 1103.61 1149.26 1096.11C1145.28 1093.49 1124.93 1094.21 1119.51 1095.01C1112.19 1100.04 1119.31 1169.47 1108 1190.79C1116.22 1150 1112.54 1109.01 1112.45 1067.19C1103.3 1067.08 1093.94 1067.19 1084.77 1067.2C1084.68 1074.77 1084.61 1080.91 1083.87 1088.42C1082.98 1083.17 1079.76 1066.8 1082.39 1065.48C1095.48 1058.92 1135.73 1067.71 1148.83 1061.48C1153.61 1055.61 1151.46 1023.71 1151.35 1014.44Z" fill="black"/>
<path d="M1251.59 1067.92C1256.39 1066.46 1274.17 1067.15 1280.15 1067.26C1278.7 1102.16 1280.13 1139.86 1279.55 1175.02C1279.39 1184.88 1279.11 1224.71 1280.74 1231.73C1273.28 1230.38 1260.07 1231.29 1251.86 1231.06L1251.59 1067.92Z" fill="#FEFEFE"/>
<path d="M1153.92 1018.25C1163.09 1018.09 1172.26 1018.16 1181.43 1018.5C1181.71 1034.77 1181.68 1051.04 1181.31 1067.3C1199.08 1066.95 1217.46 1067.17 1235.33 1067.01C1235.61 1075.26 1235.64 1083.54 1235.44 1091.79C1220.86 1093.04 1195.93 1092.59 1181.36 1091.66C1183.19 1121.18 1180.08 1151.8 1182.27 1181.71C1185.05 1219.56 1225.46 1201.49 1234.9 1208.65L1235.33 1212.65L1235.35 1231.11C1228.7 1231.25 1222.04 1231.35 1215.39 1231.41C1198.46 1231.49 1180.86 1231.65 1168.2 1218.54C1161.55 1211.64 1157.71 1202.67 1155.64 1193.42C1151.21 1173.61 1153.16 1114.71 1153.91 1091.52C1144.07 1092.34 1127.52 1091.84 1117.21 1091.77V1067.24L1153.62 1067.16C1153.47 1050.85 1153.55 1034.55 1153.92 1018.25Z" fill="#FEFEFE"/>
<path d="M1572.45 1059.79C1601.73 1056.63 1629.42 1071.55 1639.25 1099.7C1647.23 1122.56 1645.63 1146.55 1647.46 1170.41C1647.92 1176.46 1646.21 1184.55 1646.71 1190.82C1646.49 1199.84 1649.99 1223.95 1646.5 1231.58C1640.51 1234.56 1620.12 1233.49 1612.44 1233.43C1611.75 1209.09 1612.84 1184.5 1612.48 1160.17C1612.24 1143.17 1614.85 1124.21 1606.02 1108.96C1601.32 1100.71 1593.38 1094.8 1584.12 1092.69C1570.3 1089.43 1558.17 1090.28 1545.88 1097.63C1540.76 1102.1 1535.81 1105.21 1531.37 1110.74C1517.94 1127.17 1521.33 1148.68 1520.43 1167.96C1519.37 1190.98 1519.35 1210.21 1521.79 1233.24C1512.93 1233.73 1497.8 1233.18 1488.8 1232.76C1485.13 1222.13 1487.34 1085 1487.53 1063.5C1495.55 1063.3 1513.06 1062.1 1519.53 1065.48C1522.05 1070.42 1516.72 1082.41 1521.5 1086.96C1523.64 1084.61 1523.37 1082.4 1525.31 1080.13C1527.21 1077.9 1531.17 1075.57 1533.58 1073.84C1548.1 1063.43 1555.51 1062.54 1572.45 1059.79Z" fill="black" fill-opacity="0.988235"/>
<path d="M1568.33 1062.79C1569.6 1062.71 1570.86 1062.64 1572.13 1062.57C1605.89 1060.89 1634.6 1077.48 1640.29 1111.24C1646.46 1147.87 1642.08 1193.51 1643.51 1231.06C1634.12 1231.24 1624.75 1231.22 1615.36 1231L1615.37 1165.76C1615.37 1154.25 1616.05 1141.31 1614.68 1130C1609.77 1089.8 1575.41 1079.96 1542.79 1096.58C1511.12 1117.51 1518.44 1153.96 1518.16 1186.34C1518.04 1201.2 1517.94 1216.12 1517.97 1230.98C1509.75 1231.53 1498.23 1231.46 1490.16 1230.97C1488.7 1177.19 1489.93 1120.96 1490.06 1067.04L1517.17 1067.14C1517.17 1077.51 1516.96 1087.89 1516.55 1098.26C1528.62 1076.67 1543.78 1066.62 1568.33 1062.79Z" fill="#FEFEFE"/>
<path d="M711.177 720.311C721.162 720.36 732.8 720.727 742.61 719.809C737.781 733.755 728.967 752.869 722.989 766.821L675.621 878.476C667.196 898.174 657.141 919.878 649.583 939.559C639.78 939.977 632.709 939.974 622.908 939.539C618.179 929.949 613.483 918.723 609.395 908.744C583.629 845.862 554.47 783.548 529.5 720.418C539.451 720.429 549.401 720.363 559.352 720.222C559.497 720.304 559.669 720.352 559.788 720.469C561.647 722.281 631.105 884.814 635.779 901.945C640.551 889.029 647.931 872.749 653.414 859.67L690.601 770.437C697.349 754.212 705.198 736.627 711.177 720.311Z" fill="#FEFEFE"/>
<path d="M961.601 1067.77C962.466 1065.65 962.367 1064.5 963.927 1064.13C971.691 1062.28 984.219 1063.28 992.266 1063.61C992.402 1083.36 992.393 1103.11 992.227 1122.85C992.129 1158.66 988.809 1207.71 1039.83 1206.62C1079.98 1205.76 1081.96 1173.9 1081.75 1143.01C1081.7 1135.5 1083.51 1127.77 1083.32 1119.46C1082.98 1110.49 1083.99 1098.5 1083.87 1088.42C1084.61 1080.91 1084.68 1074.77 1084.77 1067.2C1093.94 1067.19 1103.3 1067.08 1112.45 1067.19C1112.54 1109.01 1116.22 1150 1108 1190.79C1093.91 1221.45 1076.43 1233.87 1041.82 1236.81C1023.1 1238.4 1000 1231.13 986.045 1218.55C960.58 1195.58 961.574 1158.04 962.058 1126.55C962.151 1107.58 962.401 1086.56 961.601 1067.77Z" fill="#FEFEFE"/>
<path d="M961.601 1067.77C962.466 1065.65 962.367 1064.5 963.927 1064.13C971.691 1062.28 984.219 1063.28 992.266 1063.61C992.402 1083.36 992.393 1103.11 992.227 1122.85C992.129 1158.66 988.809 1207.71 1039.83 1206.62C1079.98 1205.76 1081.96 1173.9 1081.75 1143.01C1081.7 1135.5 1083.51 1127.77 1083.32 1119.46L1084.09 1120.45C1086.2 1153.83 1089.41 1207.98 1041.87 1209.48C985.703 1211.25 990.918 1162.11 991.123 1123.06C991.396 1104.47 991.377 1085.88 991.064 1067.29C982.9 1067.13 969.271 1066.68 961.601 1067.77Z" fill="black"/>
<path d="M1716.17 1062.7C1753.74 1059.4 1784.96 1070.5 1791.92 1111.88C1781.68 1112.66 1774.18 1112.51 1763.87 1111.81C1758.09 1088.54 1738.98 1083.25 1716.76 1087.39C1707.56 1089.1 1702.07 1094.99 1697.48 1102.86C1697.39 1104.63 1697.1 1112.31 1697.3 1114.01C1700.68 1142.25 1763.04 1132.04 1782.62 1152.37C1790.78 1159.66 1795.25 1168.8 1795.89 1180.13C1798.38 1224.39 1765.52 1233.13 1732.23 1236.61C1694.52 1233.96 1665.35 1224.42 1661.07 1180.72C1668.7 1180.1 1679.86 1180.55 1687.76 1180.64C1689.75 1189.84 1691.17 1195.62 1698.76 1202.55C1713.54 1216.04 1747.84 1217.62 1761.57 1201.91C1768.06 1194.49 1767.05 1186.34 1765.95 1177.24C1747.07 1148.84 1677.34 1169.55 1669.97 1120.13C1664.77 1085.23 1684.06 1068.42 1716.17 1062.7Z" fill="#FEFEFE"/>
<path d="M229.313 849.652C247.555 848.695 264.894 857.652 274.671 873.082C284.447 888.513 285.141 908.017 276.484 924.102C267.828 940.187 251.168 950.353 232.904 950.693C205.319 951.207 182.415 929.512 181.435 901.938C180.454 874.365 201.761 851.098 229.313 849.652Z" fill="#F45151"/>
<path d="M294.193 1047.77C282.831 1050.66 270.816 1049.52 260.203 1044.54C234.655 1032.54 223.294 1002.49 235.406 977.676C256.063 935.366 316.529 938.969 330.163 985.254C333.715 997.314 332.026 1009.24 326.397 1020.08C316.809 1034.8 313.184 1039.16 296.174 1046.61C294.666 1047.28 295.438 1046.79 294.193 1047.77Z" fill="#F45151"/>
<path d="M1181.5 774.281C1186.72 771.456 1190.43 772.726 1195.68 772.162C1217.83 769.785 1209.81 784.557 1213.59 790.863L1215.7 791.212C1218.13 789.041 1224.72 782.761 1226.73 781.353C1236.4 774.573 1267.45 768.004 1276.97 775.192C1277.9 782.572 1276.23 791.947 1276.69 800.632C1270.97 803.447 1271.75 803.625 1264.86 801.936C1252.15 798.82 1239.18 806.657 1228.5 812.303C1206.78 827.553 1210.2 865.745 1210.3 888.565C1210.52 905.565 1210.48 922.566 1210.21 939.565C1203.64 939.835 1186.31 941.237 1181.38 938.01C1179.48 915.731 1181.41 892.505 1181.18 870.163C1180.94 847.352 1180.33 824.481 1180.69 801.661C1180.82 793.746 1179.78 781.381 1181.5 774.281Z" fill="#FEFEFE"/>
<path d="M1181.5 774.281C1186.72 771.456 1190.43 772.726 1195.68 772.162C1217.83 769.785 1209.81 784.557 1213.59 790.863L1215.7 791.212C1218.13 789.041 1224.72 782.761 1226.73 781.353C1236.4 774.573 1267.45 768.004 1276.97 775.192C1277.9 782.572 1276.23 791.947 1276.69 800.632C1270.97 803.447 1271.75 803.625 1264.86 801.936C1252.15 798.82 1239.18 806.657 1228.5 812.303C1238.89 799.352 1259.06 799.75 1274.12 799.353C1273.6 791.702 1273.84 782.939 1273.86 775.19C1239.65 774.665 1225.31 777.483 1208.31 810.268C1207.94 799.59 1208.73 786.283 1208.7 775.147C1201.31 775.047 1187.85 775.628 1181.5 774.281Z" fill="black"/>
<path d="M943.126 711.578C950.533 712.555 963.347 711.773 970.855 711.399C971.997 726.158 971.646 743.257 971.637 758.18L971.613 829.656L971.766 894.852C971.79 907.1 971.984 919.729 971.438 931.955C971.232 936.536 971.021 936.396 968.571 939.717C959.872 940.381 951.287 939.931 942.573 939.655C943.787 919.343 942.846 892.792 942.764 872.102L942.996 780.273C942.972 757.2 942.326 734.67 943.126 711.578Z" fill="#FEFEFE"/>
<path d="M905.882 1004.01C915.306 1003.8 924.732 1003.72 934.158 1003.79L934.178 1231.27C924.536 1231.64 915.343 1231.47 905.715 1231.33C905.327 1166.35 905.76 1100.89 905.574 1035.86C905.546 1026.11 904.31 1013.37 905.882 1004.01Z" fill="#FEFEFE"/>
<path d="M1260.92 999.951C1286.94 998.525 1295 1025.84 1272.27 1035.09C1263.35 1037.02 1253.36 1035.12 1248.68 1026.47C1246.29 1022.03 1245.95 1016.78 1247.74 1012.06C1250.32 1005.06 1254.71 1003.04 1260.92 999.951Z" fill="#FEFEFE"/>
</svg>
