<svg viewBox="182 712 1613 522" fill="none" xmlns="http://www.w3.org/2000/svg">
<path d="M453.303 855.65C464.187 854.476 473.265 855.417 483.161 860.577C495.041 866.697 503.797 877.535 507.281 890.437C512.494 909.48 506.506 919.986 497.25 936.025L419.367 1068.38C411.176 1082.3 402.512 1096.69 394.481 1110.65C383.241 1130.21 377.261 1138.3 354.826 1144.3C342.691 1145.74 331.985 1143.88 321.432 1137.45C310.478 1130.81 302.737 1119.96 300.026 1107.44C294.989 1084.92 307.243 1069.92 318.091 1051.51L346.784 1002.87L395.464 920.097C404.234 905.194 413.044 889.791 422.185 875.167C429.052 864.18 440.832 858.163 453.303 855.65Z" fill="#F55151"/>
<path d="M816.18 770.95C847.975 772.277 868.099 782.19 883.074 811.063C882.914 799.266 883.019 787.233 883.002 775.415L909.216 775.437L909.146 938.948L883.001 939.056L883.014 903.897C880.201 909.597 878.644 911.969 875.109 917.169C863.472 931.668 846.537 940.935 828.051 942.92C807.334 945.436 786.483 939.436 770.271 926.296C714.203 880.639 735.396 777.173 816.18 770.95ZM833.321 915.935C865.906 910.794 888.093 880.129 882.782 847.57C877.472 815.013 846.69 792.986 814.161 798.467C781.87 803.907 760.042 834.413 765.314 866.73C770.585 899.049 800.976 921.037 833.321 915.935Z" fill="black"/>
<path d="M1069.12 771.367C1116.43 767.42 1157.97 802.559 1161.93 849.86C1165.9 897.161 1130.76 938.72 1083.47 942.692C1036.14 946.666 994.57 911.522 990.605 864.203C986.65 816.885 1021.8 775.317 1069.12 771.367ZM1085.28 915.828C1106.43 912.611 1124.22 898.288 1131.87 878.315C1139.52 858.344 1135.86 835.8 1122.28 819.275C1108.7 802.752 1087.29 794.795 1066.21 798.436C1034.08 803.987 1012.41 834.381 1017.64 866.569C1022.87 898.757 1053.04 920.73 1085.28 915.828Z" fill="black"/>
<path d="M793.853 1063.36C841.127 1059.49 882.598 1094.66 886.521 1141.92C890.444 1189.2 855.338 1230.71 808.073 1234.7C760.724 1238.68 719.119 1203.5 715.189 1156.14C711.259 1108.79 746.493 1067.24 793.853 1063.36ZM809.89 1207.82C831.043 1204.61 848.838 1190.27 856.487 1170.29C864.137 1150.31 860.462 1127.75 846.863 1111.23C833.266 1094.72 811.841 1086.77 790.76 1090.44C758.641 1096.02 737.004 1126.42 742.247 1158.59C747.49 1190.77 777.66 1212.72 809.89 1207.82Z" fill="black"/>
<path d="M1377.81 1063.36C1425.07 1059.51 1466.52 1094.66 1470.45 1141.91C1474.38 1189.17 1439.31 1230.67 1392.06 1234.68C1344.7 1238.7 1303.08 1203.52 1299.13 1156.15C1295.2 1108.79 1330.44 1067.23 1377.81 1063.36ZM1394.83 1207.68C1427.27 1202.17 1449.07 1171.38 1443.5 1138.96C1437.92 1106.53 1407.07 1084.8 1374.66 1090.45C1342.35 1096.08 1320.71 1126.81 1326.27 1159.12C1331.84 1191.45 1362.5 1213.16 1394.83 1207.68Z" fill="black"/>
<path d="M611.986 1008.21C632.288 1004.9 663.987 1010.89 680.315 1024.2C696.605 1037.48 700.194 1050.3 702.417 1070.1L674.105 1070.13C669.478 1038.16 645.758 1032.53 617.689 1032.92C595.868 1033.23 570.521 1044.21 572.689 1070.38C575.546 1104.85 625.892 1103.93 650.904 1110.32C702.82 1119.1 730.966 1167.95 694.981 1211.93C680.588 1229.52 648.595 1235.11 625.212 1235.51C579.735 1234.42 543.175 1217.2 538.693 1167.97H567.008C570.07 1227.11 688.919 1227.06 681.818 1165.99C678.208 1134.95 629.251 1131.3 604.416 1126.47C554.822 1116.83 526.59 1078.68 556.376 1032.65C566.978 1016.38 592.515 1010.48 611.986 1008.21Z" fill="black"/>
<path d="M530.123 720.816L559.901 720.935C585.803 780.727 610.794 842.539 635.938 902.794C643.746 886.963 654.443 858.841 661.48 841.952L711.913 720.885L741.773 720.904L730.27 747.721L648.929 939.001L623.151 939.003L530.123 720.816Z" fill="black"/>
<path d="M1573.25 1062.9C1605.26 1059.69 1634.88 1080.19 1639.8 1111.55C1645.56 1148.17 1643.55 1193.61 1643.11 1230.95L1616.1 1231L1616.22 1169.95C1616.26 1138.05 1620.01 1091.12 1574.48 1088.53C1561.71 1087.79 1552.18 1090.45 1541.3 1097.19C1512.77 1118.23 1517.43 1147.62 1517.55 1179.2L1517.6 1230.94L1490.38 1231.04L1490.36 1067.39L1516.59 1067.4L1516.47 1099.93C1527.58 1075.98 1547.61 1065.06 1573.25 1062.9Z" fill="black"/>
<path d="M1722.35 1062.89C1754.8 1059.42 1787.58 1075.79 1790.63 1111.5C1781.92 1111.67 1772.93 1111.51 1764.21 1111.47C1759.71 1092.92 1749.89 1086.96 1731.16 1085.78C1713.77 1084.7 1695.41 1091.73 1696.48 1112.04C1697.6 1133.15 1724.66 1133.98 1740.26 1137.45C1767.43 1142.51 1795.46 1150.13 1795.63 1183.71C1795.84 1223.88 1762.55 1234.82 1729.04 1235.5C1693.04 1233.78 1665.77 1220.63 1661.46 1180.92C1669.18 1180.6 1680.04 1181.01 1688.02 1181.05C1690.77 1207.81 1713.25 1214.56 1736.68 1213C1753.96 1211.86 1769.98 1202.85 1767.56 1183.26C1764.66 1159.76 1729.27 1160.73 1711.41 1155.62C1690.85 1149.74 1670.33 1139.92 1669.5 1115.1C1668.36 1079.85 1690.56 1065.87 1722.35 1062.89Z" fill="black"/>
<path d="M963.597 1067.39L990.557 1067.42C990.82 1087.58 990.293 1107.83 990.479 1127.97C990.703 1150.97 987.656 1179.31 1004.61 1197.51C1020.1 1214.13 1055.39 1214.21 1070.96 1197.54C1077.36 1190.68 1081.25 1182.03 1083.12 1172.88C1086 1157.96 1085.14 1141.74 1085.11 1126.52L1084.97 1067.39L1112.24 1067.46L1112.28 1092.4L1112.38 1134.25C1112.41 1162.71 1113.37 1193.59 1091.88 1215.44C1065.17 1242.6 1010.51 1242.36 983.828 1215.42C960.327 1191.68 963.502 1154.87 963.52 1124.21L963.597 1067.39Z" fill="black"/>
<path d="M1154.01 1018.63L1180.99 1018.64L1180.91 1067.4L1235.24 1067.42L1235.19 1091.38C1217.12 1091.46 1199.05 1091.4 1180.99 1091.22C1180.9 1113.96 1177.35 1178.3 1186.02 1195.92C1195.05 1214.27 1220.3 1203.53 1234.77 1208.69L1235.24 1211.67L1235.17 1231.03C1214.38 1231.16 1184.8 1234.12 1169.37 1218.88C1150.26 1200.01 1153.91 1166.13 1153.94 1141.11L1153.99 1091.2C1141.55 1091.36 1129.73 1091.5 1117.28 1091.07V1067.38L1153.98 1067.39L1154.01 1018.63Z" fill="black"/>
<path d="M226.545 850.955C253.602 847.955 277.988 867.402 281.086 894.448C284.184 921.493 264.825 945.951 237.791 949.147C210.618 952.359 186.007 932.879 182.894 905.694C179.779 878.51 199.349 853.97 226.545 850.955Z" fill="#F55151"/>
<path d="M270.149 950.765C296.72 944.571 323.277 961.104 329.447 987.676C335.617 1014.26 319.061 1040.8 292.479 1046.94C265.93 1053.09 239.428 1036.55 233.266 1010.01C227.104 983.467 243.611 956.95 270.149 950.765Z" fill="#F55151"/>
<path d="M906.413 1004.72L933.725 1004.8L933.647 1230.97L906.467 1231L906.413 1004.72Z" fill="black"/>
<path d="M1208.05 812.871C1221.37 778.514 1241.12 775.104 1274.04 775.424L1273.84 799.071C1239.12 799.639 1222.59 804.536 1211.35 841.117C1207.41 867.679 1209.5 910.306 1209.04 938.952L1181.95 938.975L1181.9 775.434L1208.11 775.421L1208.05 812.871Z" fill="black"/>
<path d="M943.555 712.797L970.781 712.799L970.779 938.909C961.889 939.087 952.62 938.958 943.696 938.966C943.052 913.381 943.545 885.913 943.545 860.218L943.555 712.797Z" fill="black"/>
<path d="M1251.93 1067.4L1279.31 1067.43L1279.24 1231.01L1251.92 1231.07L1251.93 1067.4Z" fill="black"/>
<path d="M1264.1 1000.21C1272.79 1000.71 1280.83 1003.54 1283.73 1012.68C1285.14 1017.07 1284.65 1021.86 1282.4 1025.89C1279 1032.13 1274.63 1033.59 1268.23 1035.26C1258.62 1034.96 1250.02 1032.23 1247.49 1021.66C1246.41 1017.19 1247.24 1012.46 1249.77 1008.62C1253.48 1003.01 1257.96 1001.64 1264.1 1000.21Z" fill="black"/>
</svg>
